<mxfile host="app.diagrams.net" modified="2023-12-26T15:44:06.818Z" agent="Mozilla/5.0 (Macintosh; Intel Mac OS X 10_15_7) AppleWebKit/537.36 (KHTML, like Gecko) Chrome/120.0.0.0 Safari/537.36" version="22.1.11" etag="R5vFZJKspTdThHEHxfnZ" type="github">
  <diagram name="Page-1" id="OKrQ-OSIIyXMxDsK5h3d">
    <mxGraphModel>
      <root>
        <mxCell id="0" />
        <mxCell id="1" parent="0" />
      </root>
    </mxGraphModel>
  </diagram>
</mxfile>
